<svg width="27" height="19" fill="none" xmlns="http://www.w3.org/2000/svg"><path d="M.817 18H2.93v-6.818H6.75c.153 0 .298 0 .443-.009L10.874 18h2.454l-3.946-7.21c2.225-.759 3.264-2.574 3.264-4.892 0-3.085-1.84-5.353-5.932-5.353H.817V18zM2.93 9.273V2.42h3.716c2.83 0 3.92 1.381 3.92 3.478 0 2.096-1.09 3.375-3.886 3.375H2.93zm21.216 3.375c0 2.454-1.875 3.58-3.375 3.58-1.67 0-2.864-1.228-2.864-3.137V4.909h-2.011v8.318c0 3.341 1.772 4.944 4.227 4.944 1.977 0 3.273-1.057 3.886-2.387h.137V18h2.011V4.91h-2.011v7.738zM-1.297 22.773h29.295v1.636H-1.297v-1.636z" fill="#fff"/></svg>